# xmcd
#
# Track frame offsets:
#	182
#	16062
#	30562
#	46590
#	64180
#	78960
#	95870
#	108242
#	125252
#	146417
#
# Disc length: 2132 seconds
#
# Revision: 3
# Processed by: cddbd v1.5.1PL2 Copyright (c) Steve Scherf et al.
# Submitted via: dBpowerAMP V4.0
#
DISCID=7408520a
DTITLE=Greg Holland - Let Me Drive
DYEAR=1994
DGENRE=Country
TTITLE0=Up To Feelin' Down
TTITLE1=Let Me Drive
TTITLE2=Hurts, Don't It
TTITLE3=Sweetwater
TTITLE4=Me And You And The Moon
TTITLE5=Teach Me To Dance
TTITLE6=You Look Like My Baby
TTITLE7=Oh To Be One
TTITLE8=Still Goes On
TTITLE9=When I Come Back (I Wanna Be My Dog)
EXTD=
EXTT0=
EXTT1=
EXTT2=
EXTT3=
EXTT4=
EXTT5=
EXTT6=
EXTT7=
EXTT8=
EXTT9=
PLAYORDER=
